<svg width="3000" height="3000" viewBox="0 0 3000 3000" fill="none" xmlns="http://www.w3.org/2000/svg">
<path d="M1061.22 362.842H2678.69C2838.32 362.842 2954.49 514.254 2913.17 668.434C2876.64 804.739 2731.49 882.571 2594.87 847.241C2202.42 745.754 1446.9 608.513 1050.87 920.877C519.438 1340.05 602.214 2594.98 602.214 2594.98H294.912C148.139 2594.98 41.3121 2455.76 79.3067 2313.99L483.394 806.199C553.48 544.683 790.472 362.842 1061.22 362.842Z" fill="black"/>
<path d="M1050.87 2501.65C814.202 2178.25 1027.08 1610.16 1170.18 1308.33C1230.68 1180.71 1361.8 1106.56 1503.03 1106.56H1771.96C1813.51 1106.56 1838.02 1154.81 1814.69 1189.18C1691.26 1371.04 1428.71 1806.66 1584.48 2019.51C1704.41 2183.38 2077.71 2131.84 2370.45 2059.52C2533.13 2019.33 2692.75 2168.09 2649.37 2329.95C2621.05 2435.61 2537.07 2516.98 2429.65 2537.67C2062.03 2608.48 1224.78 2739.28 1050.87 2501.65Z" fill="black"/>
<path d="M2600.1 1501.25L2614.93 1445.89C2652.93 1304.12 2546.1 1164.89 2399.33 1164.89H2321.53C2186.16 1164.89 2067.66 1255.82 2032.62 1386.57L2017.78 1441.93C1979.79 1583.7 2086.61 1722.93 2233.39 1722.93H2311.19C2446.56 1722.93 2565.05 1632.01 2600.1 1501.25Z" fill="black"/>
<path d="M1061.22 362.842H2678.69C2838.32 362.842 2954.49 514.254 2913.17 668.434C2876.64 804.739 2731.49 882.571 2594.87 847.241C2202.42 745.754 1446.9 608.513 1050.87 920.877C519.438 1340.05 602.214 2594.98 602.214 2594.98H294.912C148.139 2594.98 41.3121 2455.76 79.3067 2313.99L483.394 806.199C553.48 544.683 790.472 362.842 1061.22 362.842Z" stroke="black" stroke-width="2.23214"/>
<path d="M1050.87 2501.65C814.202 2178.25 1027.08 1610.16 1170.18 1308.33C1230.68 1180.71 1361.8 1106.56 1503.03 1106.56H1771.96C1813.51 1106.56 1838.02 1154.81 1814.69 1189.18C1691.26 1371.04 1428.71 1806.66 1584.48 2019.51C1704.41 2183.38 2077.71 2131.84 2370.45 2059.52C2533.13 2019.33 2692.75 2168.09 2649.37 2329.95C2621.05 2435.61 2537.07 2516.98 2429.65 2537.67C2062.03 2608.48 1224.78 2739.28 1050.87 2501.65Z" stroke="black" stroke-width="2.23214"/>
<path d="M2600.1 1501.25L2614.93 1445.89C2652.93 1304.12 2546.1 1164.89 2399.33 1164.89H2321.53C2186.16 1164.89 2067.66 1255.82 2032.62 1386.57L2017.78 1441.93C1979.79 1583.7 2086.61 1722.93 2233.39 1722.93H2311.19C2446.56 1722.93 2565.05 1632.01 2600.1 1501.25Z" stroke="black" stroke-width="2.23214"/>
</svg>
